<?xml version="1.0" encoding="utf-8"?>
<!-- Generator: Adobe Illustrator 21.0.0, SVG Export Plug-In . SVG Version: 6.00 Build 0)  -->
<svg version="1.1" id="Layer_1" xmlns="http://www.w3.org/2000/svg" xmlns:xlink="http://www.w3.org/1999/xlink" x="0px" y="0px"
	 viewBox="0 0 300 300" style="enable-background:new 0 0 300 300;" xml:space="preserve">
<style type="text/css">
	.st0{fill:#FDFEFE;}
	.st1{fill:#873E35;}
	.st2{fill:none;}
	.st3{enable-background:new    ;}
</style>
<g>
	<rect x="-291.7" y="129.4" width="256.3" height="96.2"/>
	<rect x="-287.8" y="137.2" class="st0" width="14.4" height="7.9"/>
	<rect x="-268.3" y="137.2" class="st0" width="14.4" height="7.9"/>
	<rect x="-248.8" y="137.2" class="st0" width="14.4" height="7.9"/>
	<rect x="-229.3" y="137.2" class="st0" width="14.4" height="7.9"/>
	<rect x="-209.7" y="137.2" class="st0" width="14.4" height="7.9"/>
	<rect x="-190.2" y="137.2" class="st0" width="14.4" height="7.9"/>
	<rect x="-170.7" y="137.2" class="st0" width="14.4" height="7.9"/>
	<rect x="-151.2" y="137.2" class="st0" width="14.4" height="7.9"/>
	<rect x="-131.7" y="137.2" class="st0" width="14.4" height="7.9"/>
	<rect x="-112.1" y="137.2" class="st0" width="14.4" height="7.9"/>
	<rect x="-92.6" y="137.2" class="st0" width="14.4" height="7.9"/>
	<rect x="-73.1" y="137.2" class="st0" width="14.4" height="7.9"/>
	<rect x="-53.6" y="137.2" class="st0" width="14.4" height="7.9"/>
	<rect x="-284.7" y="150.6" class="st0" width="53.9" height="53.9"/>
	<rect x="-222.1" y="150.6" class="st0" width="53.9" height="53.9"/>
	<rect x="-158.7" y="150.6" class="st0" width="53.9" height="53.9"/>
	<rect x="-287.8" y="209.4" class="st0" width="14.4" height="7.9"/>
	<rect x="-268.3" y="209.4" class="st0" width="14.4" height="7.9"/>
	<rect x="-248.8" y="209.4" class="st0" width="14.4" height="7.9"/>
	<rect x="-229.3" y="209.4" class="st0" width="14.4" height="7.9"/>
	<rect x="-209.7" y="209.4" class="st0" width="14.4" height="7.9"/>
	<rect x="-190.2" y="209.4" class="st0" width="14.4" height="7.9"/>
	<rect x="-170.7" y="209.4" class="st0" width="14.4" height="7.9"/>
	<rect x="-151.2" y="209.4" class="st0" width="14.4" height="7.9"/>
	<rect x="-131.7" y="209.4" class="st0" width="14.4" height="7.9"/>
	<rect x="-112.1" y="209.4" class="st0" width="14.4" height="7.9"/>
	<rect x="-92.6" y="209.4" class="st0" width="14.4" height="7.9"/>
	<rect x="-73.1" y="209.4" class="st0" width="14.4" height="7.9"/>
	<rect x="-53.6" y="209.4" class="st0" width="14.4" height="7.9"/>
	<rect x="-95.3" y="150.6" class="st0" width="53.9" height="53.9"/>
	<g>
		<path d="M-254.4,150.6l12.1,53.9h-6.3l-3.4-15.6h-12l-3.3,15.6h-5.8l12.4-53.9H-254.4z M-253,183.9l-4.9-26.9l-5.1,26.9H-253z"/>
		<path d="M-210.7,150.6h6.5l9.2,45.8l9.1-45.8h6.2l-12.2,53.9h-6.6L-210.7,150.6z"/>
		<path d="M-117.5,177.2c0,8.6-1.3,15.9-4.6,21.4c-3.7,5.9-9,5.9-10.8,5.9c-10.4,0-15.4-8.4-15.4-26.6c0-12.6,2.7-27.3,15.4-27.3
			C-121.1,150.6-117.5,162.4-117.5,177.2z M-142.2,176.7c0,17.6,3.6,22.7,9.2,22.7c6.9,0,9.2-8.1,9.2-21.8c0-14.5-2.5-21.9-9.2-21.9
			C-139.2,155.6-142.2,162.3-142.2,176.7z"/>
		<path d="M-84.5,150.6h7.4l17.1,42.2l-0.3-42.2h5.5v53.9h-6l-18.4-46.1l0.3,46.1h-5.5v-53.9H-84.5z"/>
	</g>
</g>
<image style="overflow:visible;enable-background:new    ;" width="288" height="115" xlink:href="ABAA6FC6EDD95464.png"  transform="matrix(0.5451 0 0 0.5522 -192.3172 54.1792)">
</image>
<circle class="st1" cx="150" cy="150" r="129.7"/>
<g>
	<path class="st0" d="M94.4,181h-15l-3.9-14.6H58.4l-0.6-0.8l-9.1,9.1l-0.1,0.1l1,1.1l8.5-8.6l-0.5,1.8l-7.4,7.5l1,1l5.7-5.6
		l-0.5,1.9l-4.5,4.5l1,1l2.7-2.7l-0.5,1.9l-1.5,1.6l0.9,0.9h-15l17.6-69.8l0.7,0.8l0.8-0.8H60l-1.6,1.6l0.9,1.2l2.8-2.8h1.4
		l-3.6,3.6l0.9,1.1l4.7-4.7h1.4l-5.5,5.5l0.2,0.3l-0.5,2.1l7.9-7.9h1.4l-3.1,3.1l1.4,0.8l3.8-3.9h1.4l-4.4,4.3l1.4,0.8l5.1-5.1h0.7
		l0.1,0.6l-5,5l0.4,0.2l0.3,1.2l4.7-4.8l0.3,1.1l-4.8,4.8l0.4,1.7l4.8-4.8l0.3,1.1l-4.8,4.9l0.3,1.7l4.9-4.9l0.3,1.1L74,125l0.4,1.7
		l4.9-4.9l0.3,1.1l-5,4.9l0.4,1.7l5-5l0.3,1.1l-5,5.1l0.4,1.7l5-5.1l0.3,1.1l-5.1,5.1l0.4,1.7l5.1-5.1l0.3,1.1l-5.1,5.1l0.3,1.7
		l5.2-5.1l0.3,1.1l-5.2,5.2l0.4,1.7l5.2-5.3l0.3,1.1l-5.3,5.3l0.4,1.7l5.3-5.3l0.3,1.1l-5.3,5.3l0.4,1.8l5.3-5.4l0.3,1.1l-5.4,5.4
		l0.4,1.7l5.4-5.5l0.3,1.1l-5.4,5.5l0.3,1.7l5.5-5.5l0.3,1.1l-5.5,5.5l0.4,1.8l5.5-5.6l0.3,1.1l-5.6,5.6l0.4,1.7l5.6-5.6l0.3,1.1
		l-5.6,5.6l0.4,1.7l5.7-5.7l0.2,1l-5.7,5.8l0.4,1.7l5.8-5.8l0.2,1.1l-5.7,5.8l0.3,1.7l5.9-5.8l0.2,1.1l-5.8,5.8l0.4,1.7l5.9-5.8
		l0.2,1.1l-5.9,5.9l0.4,1.7l6-6l0.2,1.1l-5.9,6l0.4,1.7l6-6l0.2,1.1l-5.4,5.5l1.2,0.8l4.7-4.6l0.2,1.1l-4.1,4.1l1.3,0.9l3.3-3.3
		l0.2,1.1l-2.7,2.7l1.2,0.9l2-2l0.2,1.1l-1.4,1.4l1.3,0.9l0.6-0.6L94.4,181L94.4,181L94.4,181z M57.2,164.8l-0.9-1.3l-6.6,6.7
		l-0.6,2.7L57.2,164.8z M50.1,168.4l5.6-5.7l-0.9-1.2l-4.1,4.2L50.1,168.4z M51.1,163.9l3.2-3.2l-0.9-1.2l-1.7,1.7L51.1,163.9z
		 M67.1,158.2l5.9-5.9l-0.8-0.5l-5.3-24.6v-2.1l-9.2,9.2l-0.6,2.8l9.8-9.9l-0.4,1.8l-9.8,9.8l-0.6,2.7l9.8-9.8l-0.3,1.7l-9.9,9.9
		L55,146l10-9.9l-0.4,1.7l-10,10l-0.6,2.7l10-10l-0.3,1.8l-10.1,10L53,155l10.1-10.1l-0.4,1.8l-10.1,10.1l-0.3,1.5l-0.3,1.2l0.7-0.7
		l-0.4-0.5h0.9l8.9-8.9l-0.3,1.7l-7.2,7.2h2.1l6.4-6.4h1.4l-6.4,6.4h2.1l6.4-6.4H68l-6.4,6.4h2.1l6.4-6.4h1.4l-6.4,6.4L67.1,158.2
		L67.1,158.2z M58.2,132.6l8.8-8.8v-2.1l-8.2,8.2L58.2,132.6z M59.2,128.1l7.8-7.8v-2.1l-7.2,7.2L59.2,128.1z M60.2,123.6l6.8-6.8
		v-2.1l-6.2,6.2L60.2,123.6z M70.6,158.2l4.5-4.5l-1.3-0.8l-5.3,5.3H70.6z M74.1,158.2l3-3.1l-1.2-0.8l-3.9,3.9L74.1,158.2
		L74.1,158.2z M77.6,158.2l1.6-1.6l-1.3-0.9l-2.4,2.5H77.6z M81.2,158l-1.2-0.9l-1,1.1h2L81.2,158z"/>
	<path class="st0" d="M142.9,113.9l-9.7,9.7l-0.6,2.7l9.6-9.7l-0.4,1.9l-9.6,9.5l-0.6,2.7l9.5-9.5l-0.5,1.9l-9.4,9.4l-0.6,2.6
		l9.3-9.3l-0.4,1.8l-9.2,9.3l-0.6,2.7l9.1-9.2l-0.5,1.8l-9,9.1l-0.6,2.7l8.9-9l-0.4,1.8l-8.9,8.9l-0.6,2.7l8.8-8.8l-0.5,1.8
		l-8.7,8.8l-0.6,2.6l8.6-8.6l-0.4,1.8l-8.6,8.6l-0.6,2.7l8.5-8.5l-0.5,1.8l-8.4,8.4l-0.6,2.7l8.3-8.3l-0.4,1.8l-8.3,8.3l-0.6,2.6
		l8.2-8.1l-0.5,1.8l-8.1,8.1l-0.6,2.7l8-8.1l-0.4,1.9l-8,7.9l-0.6,2.7l7.9-7.9l-0.5,1.9l-7.1,7.1l0.9,1.1l5.5-5.5l-0.4,1.8l-4.5,4.5
		l0.9,1.2l2.9-2.9l-0.5,1.8L125,180l0.9,1.1l0.2-0.2L126,181h-19.2l-17.4-69.8h1.3l-0.6,0.5l1.3,0.9l1.3-1.4h1.4l-1.9,1.9l1.2,0.9
		l2.8-2.8h1.4l-3.4,3.4l1.2,0.8l4.2-4.2h1.4l-4.8,4.8l1.3,0.8l5.6-5.6h1.1v0.2l-5.9,6l0.1,0.1l0.3,1.5l5.9-5.9l0.3,1.1l-5.9,5.9
		l0.4,1.7l5.9-5.9l0.2,1.1l-5.9,5.9l0.4,1.7l5.9-5.9l0.3,1.1l-6,5.9l0.4,1.7l6-5.9l0.2,1.1l-5.9,5.9l0.3,1.7l6-5.9l0.2,1.1l-5.9,5.9
		l0.4,1.7l5.9-5.9l0.3,1.1l-6,5.9l0.4,1.7l6-5.9l0.2,1.1l-5.9,6l0.3,1.7l6-6l0.3,1.1l-6,6l0.4,1.7l6-6l0.2,1.1l-6,6l0.4,1.7l6-6
		l0.3,1.1l-6.1,6l0.4,1.7l6-6l0.3,1.1l-6,6l0.3,1.7l6.1-6l0.2,1.1l-6,6l0.4,1.7l6-6l0.3,1.1l-6.1,6l0.4,1.7l6.1-6l0.2,1.1l-6,6
		l0.3,1.7l6.1-6l0.3,1.1l-6.1,6l0.4,1.7l6.1-6.1l0.2,1.2l-6.1,6.1l0.4,1.7l6.1-6.2l0.3,1.2l-6.2,6.1l0.4,1.7l6.1-6.2l0.3,1.2
		l-6.1,6.1l0.3,1.7l6.2-6.2l0.2,1.2l-6.1,6.1l0.4,1.7l5.9-5.9v-1.3l12.4-53.8l0.7,0.8l0.9-0.8h1.3l-1.5,1.6l1,1l2.6-2.6h1.4
		l-3.3,3.3l1,1.1l4.4-4.4h1.3l-5.1,5.1l1,1.1l6.2-6.2h1.4l-7.9,7.9l-0.6,2.6l9.8-9.7L142.9,113.9z M116.5,169.8v-2.1l-5.7,5.7
		l0.4,1.7L116.5,169.8z M116.5,173.2v-2.1l-4.5,4.5l1.3,0.8L116.5,173.2z M116.5,176.6v-2.1l-2.3,2.3l1.3,0.8L116.5,176.6z"/>
	<path class="st0" d="M187.7,143.6v2.1l7.5-7.5v1.4l-7.5,7.5v2.1l7.5-7.5v1.4l-7.5,7.5v2.1l7.5-7.5v1.4l-7.5,7.5v2.1l7.5-7.5v1.4
		l-7.5,7.5c0,0.4,0,0.8,0,1.1c0,0.4-0.1,0.7-0.1,1l7.7-7.6v1.3l-8,8c-0.1,0.5-0.3,1.1-0.4,1.6c-0.2,0.5-0.4,1.1-0.6,1.6l9.1-9v1.2
		v0.1l-8.2,8.2l1.5,0.7l6.5-6.6c0,0.3,0,0.5,0,0.7s-0.1,0.5-0.1,0.8l-5.4,5.4l1.4,0.7l3.4-3.5l-0.6,2.1l-1.8,1.8l0.8,0.4
		c-2,4.1-5,7.4-8.9,10c-3.9,2.5-8.3,3.8-13.3,3.8c-4.9,0-9.2-1.3-13.2-3.8c-3.9-2.5-6.9-5.8-8.9-10c-1.7-3.3-2.6-6.9-2.6-10.9v-21.5
		c0-3.8,0.8-7.4,2.5-10.9l1,0.5l12.8-12.8c0.3-0.1,0.7-0.2,1-0.3c0.3-0.1,0.7-0.2,1-0.3l-13.9,13.8l1.4,0.7l15-15
		c0.3-0.1,0.6-0.1,0.8-0.1s0.5,0,0.7-0.1l-15.6,15.7l1.4,0.6l2.4-2.3c0.6-0.9,1.3-1.7,2-2.4c0.7-0.7,1.5-1.3,2.4-1.9l9.7-9.8
		c0.6,0,1.1,0,1.4,0.1l-8.1,8c0.5-0.2,1-0.4,1.5-0.5c0.5-0.2,1-0.3,1.5-0.4l6.9-6.9c0.2,0.1,0.4,0.1,0.6,0.1s0.4,0,0.6,0.1l-6.4,6.4
		c0.3,0,0.6,0,0.9,0c0.3,0,0.6,0,0.9,0h0.3l5.9-5.9c0.2,0.1,0.4,0.1,0.5,0.1c0.2,0,0.3,0.1,0.5,0.1l-5.7,5.7
		c0.3,0.1,0.6,0.1,0.9,0.1c0.3,0,0.6,0.1,0.9,0.2l5.5-5.5c0.2,0.1,0.5,0.3,0.9,0.4l-5.2,5.3c0.3,0.1,0.5,0.2,0.7,0.2
		s0.5,0.1,0.8,0.2l5.1-5.1c0.1,0.1,0.3,0.2,0.4,0.2c0.2,0,0.3,0.1,0.4,0.2l-5.1,5.1c0.7,0.3,1.1,0.5,1.4,0.7l5-5
		c0.1,0.1,0.3,0.2,0.4,0.3c0.1,0.1,0.3,0.2,0.4,0.3l-4.9,4.9l1.2,0.9l4.9-4.9c0.1,0.1,0.3,0.2,0.4,0.3c0.1,0.1,0.3,0.2,0.4,0.3
		l-4.9,4.9l1,1l5-4.9c0.1,0.1,0.2,0.2,0.3,0.3c0.1,0.1,0.2,0.2,0.3,0.3l-4.9,4.9l0.9,1.2l5-5c0.1,0.1,0.2,0.3,0.3,0.4
		s0.2,0.3,0.3,0.4l-5,5c0.1,0.3,0.3,0.5,0.4,0.7c0.1,0.2,0.3,0.4,0.4,0.7l5.1-5.2l0.6,0.9l-5.3,5.2l0.6,1.5l5.4-5.4
		c0.1,0.1,0.2,0.2,0.2,0.3c0,0.1,0.1,0.2,0.1,0.3c0.1,0.1,0.1,0.1,0.1,0.2l-5.6,5.6c0.1,0.3,0.1,0.6,0.2,0.9
		c0.1,0.3,0.1,0.6,0.2,0.9l5.9-5.9c0.1,0.4,0.2,0.7,0.3,1l-6.1,6.1c0,0.2,0,0.4,0,0.6c0,0.2,0,0.4,0,0.6v0.7l6.5-6.5
		c0.1,0.2,0.2,0.6,0.3,1.1l-6.8,6.8v2.1l7.2-7.2c0,0.2,0,0.4,0,0.6c0,0.2,0,0.4,0,0.7l-7.3,7.3v2.1l7.4-7.5c0.1,0.1,0.1,0.3,0.1,0.6
		v0.8L187.7,143.6z M149.3,123c2.1-3.8,5.1-6.7,8.9-8.9L149.3,123z M186.1,164.7l-6.2-2.9l-0.2,0.2c0.1-0.1,0.1-0.1,0.1-0.2
		c0.4-1,0.6-2.1,0.6-3.2v-24.7c0-0.5-0.1-1.1-0.2-1.6c-0.1-0.6-0.3-1.1-0.4-1.6c-0.7-1.9-1.9-3.5-3.6-4.7c-1.7-1.2-3.6-1.8-5.7-1.8
		c-2.1,0-4,0.6-5.7,1.8c-1.7,1.2-2.9,2.8-3.6,4.7l-1.5-0.7l-6.4,6.4v2.1l7.8-7.8h0.1c-0.1,0.5-0.3,1-0.4,1.7l-7.5,7.5v2.1l7.3-7.3
		v1.4l-7.3,7.3v2.1l7.3-7.3v1.3l-7.3,7.4v2.1l7.3-7.3v1.3l-7.3,7.3v2.1l7.3-7.3v1.4l-7.3,7.3v2.1l7.3-7.3v1.4l-7.3,7.3v0.5
		c0,0.7,0,1.2,0.1,1.5l7.2-7.2v1.4l-7.1,7.1c0.1,0.3,0.1,0.6,0.2,0.8c0.1,0.2,0.1,0.5,0.2,0.8l6.7-6.7v1.4l-6.4,6.4
		c0.1,0.3,0.2,0.5,0.3,0.7s0.2,0.5,0.3,0.7h-0.1l5.8-5.8c0,0.2,0,0.4,0,0.6c0,0.2,0,0.4,0,0.7l-5.4,5.4c0.1,0.3,0.4,0.8,0.8,1.3
		l5.1-5.1c0.1,0.4,0.3,0.7,0.4,1l-5,5c0.2,0.3,0.5,0.6,1,1.1l4.7-4.7c0.1,0.1,0.2,0.2,0.3,0.3s0.2,0.2,0.3,0.3l-4.7,4.7l1.1,1.1
		l4.7-4.7c0.1,0.1,0.2,0.2,0.3,0.3s0.2,0.2,0.3,0.3l-4.6,4.7c0.5,0.4,0.9,0.7,1.2,0.8l4.7-4.7c0.2,0.1,0.4,0.2,0.5,0.2
		c0.2,0,0.3,0.1,0.4,0.2l-4.8,4.8c0.5,0.2,0.9,0.4,1.4,0.7l5-5.1c0.5,0.1,1,0.2,1.3,0.2l-5.3,5.3c0.3,0.1,0.5,0.1,0.7,0.2
		c0.2,0.1,0.5,0.2,0.8,0.3l5.9-5.9c0.3-0.1,0.6-0.1,0.9-0.2c0.3-0.1,0.6-0.2,0.9-0.3l-6.6,6.6c0.3,0.1,0.6,0.1,0.9,0.1
		c0.3,0,0.6,0.1,0.9,0.1l12.2-12.3l1,0.4l-11.9,11.9c0.4,0,0.8,0,1.1,0c0.4,0,0.7,0,1.1-0.1l11-11.1l1,0.5l-10.3,10.3
		c0.5-0.1,1-0.3,1.5-0.5s1-0.4,1.5-0.6L186.1,164.7z M153.3,134.9l5.4-5.4l-3.8-1.8l-0.2,0.3c-0.5,1.1-0.8,2.1-1,3l2.7-2.6l0.9,0.4
		l-3.9,3.9c0,0.3,0,0.6,0,0.9c0,0.3,0,0.6,0,0.9L153.3,134.9L153.3,134.9z M181.2,171.1c1-0.8,2-1.8,2.9-2.9L181.2,171.1z"/>
	<path class="st0" d="M245.9,118.3v2.1l7-7v1.4l-7,7v2.1l7-7v1.4l-7,7v2.1l7-7.1v1.4l-7,7v2.1l7-7v1.4l-7,7v2.1l7-7v1.4l-7,7v2.1
		l7-7v1.4l-7,7v2.1l7-7.1v1.4l-7,7v2.1l7-7v1.4l-7,7v2.1l7-7v1.4l-7,7v2.1l7-7v1.4l-7,7v2.1l7-7v1.3l-7,7v2.1l7-7v1.4l-7,7v2.1l7-7
		v1.4l-7,7v2.1l7-7v1.4l-11.7,11.7l0.7,1.4l11-11v1.3L242.3,174l0.7,1.4l9.9-9.9v1.4l-9.2,9.3l1.3,0.7l7.9-7.9v1.4l-7,7l1.4,0.7
		l5.6-5.6v1.4l-4.7,4.7l1.3,0.8l3.4-3.4v1.3l-2.5,2.5l1.4,0.8l1.1-1.2v1.4l-0.2,0.3l0.2,0.1h-14l-22.4-43.6l-6.4,6.4v2.1l7-7v1.4
		l-7,7v2.1l7-7v1.3l-7,7v2.1l7-7v1.4l-7,7v2.1l7-7v1.4l-7,7v2.1l7-7v1.4l-7,7v2.1l7-7v1.3l-7,7v2.1l7-7v1.4l-7,7v2.1l7-7v1.4l-7,7
		v2.1l7-7v1.4l-6.6,6.6l1.1,1l5.5-5.5v1.3l-4.8,4.9l1,1l3.8-3.8v1.4l-3.1,3.1l1.1,1.1l2-2.1v1.4l-1.3,1.4l1,1l0.3-0.3v0.6h-14v-69.8
		h1.4l-0.5,0.5l1.3,0.7l1.3-1.2h1.3l-1.7,1.7l1.4,0.7l2.4-2.4h1.4l-2.9,2.9l1.4,0.8l3.6-3.7h1.4l-4.2,4.2l1.4,0.7l4.9-4.9h0.1
		l0.4,0.8l-4.7,4.7l0.8,1.4l4.7-4.7l0.4,0.9L214,119l0.7,1.4l4.7-4.7l0.5,0.9l-4.7,4.7l0.7,1.4l4.7-4.7l0.5,0.9l-4.7,4.7l0.7,1.4
		l4.7-4.7l0.5,0.9l-4.7,4.7l0.7,1.4l4.7-4.7l0.4,0.9l-4.6,4.7l0.7,1.4l4.7-4.7l0.4,0.9l-4.7,4.7l0.8,1.4l4.6-4.7l0.5,0.9l-4.7,4.7
		l0.7,1.4l4.7-4.7l0.5,0.9l-4.7,4.7l0.7,1.3l4.7-4.6l0.5,0.9l-4.7,4.7l0.7,1.3l4.7-4.6l0.4,0.9l-4.6,4.6l0.7,1.4l4.6-4.6l0.5,0.9
		l-4.6,4.6l0.7,1.4l4.6-4.6l0.5,0.9l-4.7,4.6l0.8,1.4l4.6-4.6l0.5,0.9l-4.7,4.6l0.7,1.4l4.7-4.6l0.4,0.9l-4.6,4.6l0.7,1.4l4.7-4.6
		l0.4,0.9l-4.6,4.6l0.7,1.4l4.6-4.6l0.5,0.9l-4.6,4.6l0.7,1.4l4.6-4.6l0.5,0.9l-4.6,4.6l0.7,1.4l4.6-4.6l0.5,0.9l-4.6,4.6l0.7,1.4
		l4.6-4.6l-0.5-0.9v-42.6h0.2v0.1l1.4,0.7l0.7-0.8h1.4l-1.2,1.2l1.4,0.7l1.9-1.9h1.4l-2.4,2.4l1.4,0.7l3.1-3.1h1.4l-3.7,3.6v2.1
		l5.7-5.7h1.3v0.1L245.9,118.3z M210.2,128.5l1.2-1.2l-0.7-1.4l-0.5,0.5V128.5z M210.2,132l2.4-2.4l-0.7-1.4l-1.7,1.7V132z
		 M210.2,135.5l3.6-3.6l-0.7-1.4l-2.9,2.9L210.2,135.5L210.2,135.5z M210.2,138.9l4.8-4.7l-0.7-1.4l-4.1,4V138.9z M216.1,136.5
		l-0.8-1.4l-5.2,5.2v2.1L216.1,136.5z M236,161.6l4.6-4.6l-0.7-1.4l-4.6,4.6L236,161.6z M237.2,163.9l4.6-4.6l-0.7-1.4l-4.6,4.6
		L237.2,163.9z M238.4,166.1l4.6-4.5l-0.7-1.4l-4.6,4.6L238.4,166.1z M239.5,168.4l4.6-4.6l-0.7-1.3l-4.6,4.6L239.5,168.4z
		 M245.4,166l-0.8-1.3l-4.6,4.6l0.7,1.4L245.4,166z"/>
</g>
<rect x="39" y="194.8" class="st2" width="222" height="45"/>
<g class="st3">
	<path class="st0" d="M187.7,192.7l-1.4,1.1c-1.1-1.2-2.4-1.9-4-1.9c-1.5,0-2.7,0.5-3.7,1.5c-1,1-1.5,2.3-1.5,3.7
		c0,1.5,0.5,2.7,1.5,3.7c1,1,2.3,1.5,3.7,1.5c1.6,0,2.9-0.6,3.9-1.8l1.4,1.1c-0.7,0.8-1.5,1.4-2.4,1.8c-0.9,0.4-1.9,0.6-3,0.6
		c-1.9,0-3.6-0.7-5-2.1c-1.4-1.4-2.1-3-2.1-5c0-2,0.7-3.6,2.1-5c1.4-1.4,3-2.1,5-2.1c1.1,0,2.1,0.2,3,0.7
		C186.2,191.3,187,191.9,187.7,192.7z"/>
	<path class="st0" d="M189.1,185.3h1.8v2h-1.8V185.3z M189.1,190.5h1.8v13.3h-1.8V190.5z"/>
	<path class="st0" d="M192.9,203.9v-13.3l1.5,1.2c1-1.1,2.3-1.6,3.8-1.6s2.8,0.5,3.8,1.5c1,1,1.5,2.3,1.5,3.8v8.4h-1.8v-8.4
		c0-1-0.3-1.9-1-2.5c-0.7-0.7-1.5-1-2.5-1s-1.8,0.3-2.5,1c-0.7,0.7-1,1.5-1,2.5v8.4H192.9z"/>
	<path class="st0" d="M216.7,199.7l1.6,0.9c-0.6,1.1-1.4,2-2.5,2.7c-1.1,0.7-2.3,1-3.7,1c-1.9,0-3.6-0.7-5-2.1c-1.4-1.4-2.1-3-2.1-5
		c0-2,0.7-3.6,2.1-5c1.4-1.4,3-2.1,5-2.1c1.2,0,2.4,0.3,3.4,0.9c1.1,0.6,1.9,1.4,2.5,2.3l-9.1,8c0.9,0.7,2,1,3.2,1
		c1,0,1.9-0.2,2.7-0.8C215.6,201.2,216.2,200.5,216.7,199.7z M207.7,200.2l7.8-6.9c-1-0.8-2.1-1.3-3.4-1.3c-1.5,0-2.7,0.5-3.7,1.5
		c-1,1-1.5,2.3-1.5,3.7C206.8,198.3,207.1,199.3,207.7,200.2z"/>
	<path class="st0" d="M238.7,203.9h-1.8v-8.5c0-1-0.3-1.8-1-2.5c-0.7-0.6-1.5-0.9-2.4-0.9c-0.9,0-1.7,0.3-2.4,0.9
		c-0.7,0.6-1,1.4-1,2.5v8.5h-1.8v-8.5c0-1-0.3-1.8-1-2.5c-0.7-0.6-1.5-0.9-2.4-0.9c-0.9,0-1.7,0.3-2.4,0.9c-0.7,0.6-1,1.4-1,2.5v8.5
		h-1.8v-13.3l1.5,1.2c1-1,2.3-1.5,3.7-1.5c0.9,0,1.7,0.2,2.5,0.6s1.4,1,1.8,1.6c1-1.5,2.5-2.3,4.3-2.3c0.8,0,1.5,0.1,2.1,0.4
		c0.6,0.3,1.2,0.6,1.6,1.1c0.4,0.4,0.8,1,1.1,1.6s0.4,1.3,0.4,2.1V203.9z"/>
	<path class="st0" d="M252.3,202.1c-1.4,1.5-3.1,2.2-5.1,2.2c-1.9,0-3.6-0.7-5-2.1c-1.4-1.4-2.1-3-2.1-5c0-2,0.7-3.6,2.1-5
		s3-2.1,5-2.1c2,0,3.7,0.7,5.1,2.2l2-1.8v13.3L252.3,202.1z M247.2,192c-1.5,0-2.7,0.5-3.7,1.5c-1,1-1.5,2.3-1.5,3.7
		c0,1.5,0.5,2.7,1.5,3.7c1,1,2.3,1.5,3.7,1.5c1.5,0,2.7-0.5,3.7-1.5c1-1,1.5-2.3,1.5-3.7c0-1.5-0.5-2.7-1.5-3.7
		C249.9,192.5,248.7,192,247.2,192z"/>
</g>
</svg>
