<?xml version="1.0" encoding="utf-8"?>
<!-- Generator: Adobe Illustrator 21.0.0, SVG Export Plug-In . SVG Version: 6.00 Build 0)  -->
<svg version="1.1" id="Layer_1" xmlns="http://www.w3.org/2000/svg" xmlns:xlink="http://www.w3.org/1999/xlink" x="0px" y="0px"
	 viewBox="0 0 300 300" style="enable-background:new 0 0 300 300;" xml:space="preserve">
<style type="text/css">
	.st0{fill:#F9F9FA;}
	.st1{fill:#F9F9FA;stroke:#FFFFFF;stroke-miterlimit:10;}
</style>
<text transform="matrix(1 0 0 1 388 138)"><tspan x="0" y="0" style="font-family:'MyriadPro-Regular'; font-size:12px; letter-spacing:33;">	</tspan><tspan x="36" y="0" style="font-family:'MyriadPro-Regular'; font-size:12px;">width: 50%;</tspan><tspan x="0" y="14.4" style="font-family:'MyriadPro-Regular'; font-size:12px; letter-spacing:33;">	</tspan><tspan x="36" y="14.4" style="font-family:'MyriadPro-Regular'; font-size:12px;">margin: 0 auto;</tspan><tspan x="0" y="28.8" style="font-family:'MyriadPro-Regular'; font-size:12px; letter-spacing:33;">	</tspan><tspan x="36" y="28.8" style="font-family:'MyriadPro-Regular'; font-size:12px;">display: block;</tspan></text>
<g>
	<path class="st0" d="M97.4,160.6c0-1.1,0-9.8-0.1-10h-0.1c-0.3,0.5-4.7,10.8-5.2,11.7c-0.5,1.1-4.1,9.5-4.3,9.8
		c-0.1,0.3-0.4,0.8-0.8,0.8c-0.2,0-0.4-0.2-0.6-0.6c-0.1-0.2-4.7-11.2-4.9-11.8c-0.6-1.6-3.9-9.5-4.3-10c-0.1,0.5-0.2,9.4-0.2,9.8
		c0,0.4,0,6.4,0.2,8.7c0.1,1.6,0.6,3,1.7,3h1.6c0.2,0,0.3,0.1,0.3,0.2v0.9c0,0.1-0.1,0.3-0.4,0.3c-0.4,0-1.3-0.1-4-0.1
		c-3,0-4.2,0.1-4.6,0.1c-0.3,0-0.3-0.1-0.3-0.3v-0.9c0-0.1,0-0.2,0.2-0.2h1.6c1.2,0,1.6-1.3,1.8-2.5c0.3-2.5,0.5-11.2,0.5-11.8v-6
		c0-1.3-0.2-2-1.7-2h-1.6c-0.2,0-0.3-0.1-0.3-0.2v-1c0-0.1,0.1-0.2,0.3-0.2c0.4,0,1.3,0.1,5,0.1c1.7,0,2.7-0.1,3.1-0.1
		s0.7,0.1,0.8,0.6c1.3,3.3,6.2,15.1,7.3,18c0.3-0.6,2.8-6.5,3.7-8.6c0.6-1.5,3.8-8.8,4-9.5c0.1-0.4,0.5-0.4,1.4-0.4
		c5.2,0,6.4-0.1,6.8-0.1c0.1,0,0.2,0.1,0.2,0.3v0.7c0,0.2-0.1,0.4-0.3,0.4h-1.6c-0.9,0-1,0.6-1,1.4c0,0.8,0,7.8,0,8.8v2.5
		c0,2.1,0.1,7.3,0.1,7.9c0,1.3,0.4,1.9,1,1.9h1.9c0.2,0,0.2,0.1,0.2,0.2v0.8c0,0.2,0,0.4-0.3,0.4c-0.4,0-2.1-0.1-5.2-0.1
		c-3.5,0-4.8,0.1-5.3,0.1c-0.2,0-0.3-0.1-0.3-0.3v-0.8c0-0.2,0.1-0.3,0.3-0.3h2.2c0.6,0,0.9-0.2,1-1.2c0-0.4,0.1-5.4,0.1-8.3V160.6z
		"/>
	<path class="st0" d="M115.5,171.7c-0.8,0.8-1.7,1.4-3.1,1.9c-0.8,0.2-1.6,0.2-2.3,0.2c-1.3,0-2.4-1.1-2.4-3c0-1.6,0.7-3.2,3.3-4.3
		c2.2-1.1,3.5-1.6,4.3-2.2v-1.8c-0.1-0.7-0.1-1.6-0.6-2c-0.4-0.4-1-0.5-1.8-0.5c-0.6,0-1.5,0.2-2,0.6c-0.5,0.4-0.1,0.9-0.1,1.7
		c0,1.3-0.6,2-2.1,2c-0.6,0-1.2-0.4-1.2-1.2c0-1,0.6-2.1,1.6-2.9c1.5-1.1,3.4-2,5.7-2c2,0,2.6,0.4,3.3,1c0.8,0.7,0.8,1.7,0.8,2.7
		l0.1,5.6v1.7c0,1.9,0.3,2.5,0.9,2.5c0.5,0,1-0.3,1.1-0.6c0.1-0.2,0.2-0.2,0.4-0.1l0.4,0.3c0.1,0.1,0.2,0.2,0.1,0.6
		c-0.4,0.6-1.2,2-3.3,2c-1.3,0-2.5-0.6-3-2.2H115.5z M115.3,165.6c-1.6,1-3.9,1.6-3.9,4.2c0,1.4,0.8,2.2,1.6,2.2
		c1-0.1,2.3-1.1,2.3-1.7V165.6z"/>
	<path class="st0" d="M123.2,168.9c0-0.1,0-0.2,0.1-0.3l0.7-0.2c0.1,0,0.2,0,0.3,0.1l1.2,2c0.6,1.1,1.3,1.9,3,1.9
		c1.4,0,2.5-0.8,2.5-2.2c0-1.4-0.9-2-3.4-2.8c-2.4-0.7-4.3-1.9-4.3-4.4c0-1.6,0.6-2.8,1.8-3.7c1.2-0.8,2.2-1.2,3.7-1.2
		c1.7,0,2.8,0.4,3.4,0.8c0.5,0.3,0.6,0.4,0.7,0.6l0.5,2.4c0,0.1,0,0.3,0,0.4l-0.7,0.3c-0.1,0-0.2,0-0.3-0.1l-1.7-1.9
		c-0.4-0.5-1.1-1.1-2.2-1.1c-1.3,0-2.4,0.8-2.4,2c0,1.4,1.1,1.9,3.2,2.4c1.6,0.4,2.6,0.8,3.5,1.8c0.8,0.8,1.1,1.6,1.1,2.8
		c0,3-2.4,5.1-5.9,5.1c-1.9,0-3.4-0.6-3.8-0.9c-0.1-0.1-0.2-0.2-0.3-0.4L123.2,168.9z"/>
	<path class="st0" d="M146.9,172.3h-0.1c-1,0.8-2.5,1.5-4.5,1.5c-2.7,0-6.3-1.7-6.3-7.2c0-2.1,0.9-4.7,3.1-6.7
		c1.4-1.3,3.2-1.7,4.8-1.7c1.6,0,2.5,0.3,3.8,0.8l2.7-0.8c0.1-0.1,0.2-0.1,0.3,0l0.4,0.3c0.1,0.1,0.1,0.2,0,0.6
		c-0.2,1.1-0.4,6.5-0.4,7.5v8c0,2.2,0.1,5.2,0.1,6.2c0.1,0.6,0.3,1,0.8,1h0.9c0.3,0,0.4,0.1,0.4,0.2v0.8c0,0.2-0.1,0.3-0.3,0.3
		c-0.3,0-1.6-0.1-3.9-0.1c-2.5,0-3.7,0.1-4,0.1c-0.2,0-0.3-0.1-0.3-0.5v-0.5c0-0.2,0.1-0.3,0.4-0.3h1.1c0.6,0,0.8-0.2,0.9-0.6
		c0.1-0.5,0.1-4.4,0.1-6.4V172.3z M146.9,162.6c-0.3-2.1-1.8-3.1-3.1-3.1c-2.7,0.1-3.9,3.4-3.9,5.2c-0.1,3,0.4,4.3,1.7,6
		c0.6,0.8,1.7,1.3,2.4,1.3c1.1,0,2.3-0.4,3-1.1V162.6z"/>
	<path class="st0" d="M165.1,171.4h-0.2c-0.8,1.3-2.8,2.4-4.7,2.4c-1.3,0-2.4,0-3.6-1.6c-1.3-1.7-1.3-3-1.3-4.9c0-1.7,0-2.9,0-3.6
		c0-0.8,0-2.1-0.1-2.5c-0.1-0.9-0.6-1.2-1.2-1.3c-0.6-0.1-0.8-0.1-0.8-0.3v-0.6c0-0.2,0.1-0.3,0.4-0.3h4.2c0.2,0,0.4,0,0.5-0.1
		c0.1,0,0.3-0.1,0.4-0.1c0.2,0,0.4,0.2,0.4,0.4c0,0.4-0.1,2-0.1,4.4v2.2c0,1.4-0.2,3.8,0.7,5.3c0.7,1.1,1.5,1,2.3,1
		c0.8,0,1.9-0.6,2.5-1.3c0.1-0.2,0.4-0.7,0.4-1.1v-8.3c0-0.9-0.7-1.1-1.5-1.2c-0.6-0.1-0.7-0.1-0.7-0.3v-0.6c0-0.2,0.1-0.3,0.4-0.3
		h4.4c0.2,0,0.4,0,0.6-0.1c0.2,0,0.3-0.1,0.5-0.1c0.2,0,0.3,0.2,0.3,0.4c0,0.4-0.2,1.3-0.2,4.8v2.5c0,1.7,0,3.4,0.1,4.1
		c0.1,1.1,0.5,1.2,0.8,1.2c0.2,0,0.7,0,1.1-0.1c0.3,0,0.4,0,0.4,0.1l0.1,0.6c0,0.2,0,0.3-0.2,0.3l-4.4,1.2c-0.2,0.1-0.4,0.1-0.7,0.1
		c-0.3,0-0.5-0.1-0.5-0.4L165.1,171.4z"/>
	<path class="st0" d="M176.2,165.6c0,3.6,2.6,5.7,4.6,5.7c2.2,0,3.5-0.9,4.3-2c0.1-0.2,0.3-0.2,0.4-0.2l0.5,0.3
		c0.2,0.1,0.2,0.2,0,0.7c-0.7,1.3-2.5,3.7-6.4,3.7c-2.3,0-3.9-0.5-5.1-1.9c-1.6-1.9-2-3.6-2-5.8c0-1.9,0.2-3.3,1.7-5.2
		c1.5-1.9,3.1-2.6,6.1-2.6c4,0,5.3,4.2,5.3,5.7c0,0.5-0.4,0.6-1,0.6h-8.6V165.6z M180.6,163.2c0.7,0,1.2-0.2,1.2-0.5
		c0-1.1-0.4-3.1-2.2-3.1c-1.7,0-2.8,1.3-3.3,3.6H180.6z"/>
	<path class="st0" d="M189.9,164.3c0-1.6-0.3-2.2-1.3-2.8l-0.6-0.4c-0.2-0.1-0.3-0.1-0.3-0.3v-0.2c0-0.1,0.1-0.2,0.3-0.3l4.3-2
		c0.2-0.1,0.4-0.1,0.6-0.1c0.2,0,0.3,0.2,0.3,0.4l0.3,2.5h0.1c1.2-2,2.7-3.2,4.2-3.2c1.1,0,1.8,0.8,1.8,1.8c0,1-1,1.9-1.9,1.9
		c-0.5,0-0.9-0.1-1.2-0.3c-0.3-0.2-0.6-0.3-1-0.3c-0.4,0-1.1,0.3-1.5,1c-0.3,0.5-0.4,1.3-0.4,1.7v6.8c0,1.1,0.3,1.5,1,1.5h1.6
		c0.2,0,0.3,0.1,0.3,0.2v0.8c0,0.2-0.1,0.2-0.2,0.2c-0.2,0-1.8-0.1-4.4-0.1c-2.5,0-3.9,0.1-4.1,0.1c-0.2,0-0.2-0.1-0.2-0.2v-0.8
		c0-0.2,0.1-0.3,0.3-0.3h1.2c0.6,0,0.9-0.3,0.9-1V164.3z"/>
	<path class="st0" d="M208.9,171.7c-0.8,0.8-1.7,1.4-3.1,1.9c-0.8,0.2-1.6,0.2-2.3,0.2c-1.3,0-2.4-1.1-2.4-3c0-1.6,0.7-3.2,3.3-4.3
		c2.2-1.1,3.5-1.6,4.3-2.2v-1.8c-0.1-0.7-0.1-1.6-0.6-2c-0.4-0.4-1-0.5-1.8-0.5c-0.6,0-1.5,0.2-2,0.6c-0.5,0.4-0.1,0.9-0.1,1.7
		c0,1.3-0.6,2-2.1,2c-0.6,0-1.2-0.4-1.2-1.2c0-1,0.6-2.1,1.6-2.9c1.5-1.1,3.4-2,5.7-2c2,0,2.6,0.4,3.3,1c0.8,0.7,0.8,1.7,0.8,2.7
		l0.1,5.6v1.7c0,1.9,0.3,2.5,0.9,2.5c0.5,0,1-0.3,1.1-0.6c0.1-0.2,0.2-0.2,0.4-0.1l0.4,0.3c0.1,0.1,0.2,0.2,0.1,0.6
		c-0.4,0.6-1.2,2-3.3,2c-1.3,0-2.5-0.6-3-2.2H208.9z M208.6,165.6c-1.6,1-3.9,1.6-3.9,4.2c0,1.4,0.8,2.2,1.6,2.2
		c1-0.1,2.3-1.1,2.3-1.7V165.6z"/>
	<path class="st0" d="M230.8,167.6c0,1.3,0.1,2.8,0.4,3.1c0.4,0.4,1,0.6,1.5,0.6c0.5,0,0.6,0.1,0.7,0.2l0.1,0.4
		c0.1,0.2,0,0.4-0.2,0.4l-4.7,1.3c-0.2,0.1-0.4-0.1-0.5-0.4l-0.5-1.6c-1.1,1.2-3.3,2-4.9,2c-1.4,0-2.9-0.4-4.2-1.7
		c-1.5-1.4-2.2-2.9-2.2-5.2c0-2.4,0.6-4.4,2.5-6.4c1.4-1.5,3.1-2.3,5.2-2.3c1.3,0,2.5,0.2,3.3,0.5l-0.1-6.9c0-1.2-0.3-1.7-2.2-2
		c-0.2-0.1-0.3-0.1-0.3-0.3v-0.6c0-0.1,0.1-0.2,0.3-0.3c1.8-0.2,4.1-0.4,5-0.6c0.4-0.1,0.6-0.1,0.9-0.1c0.1,0,0.3,0.2,0.2,0.6
		c-0.1,1.8-0.1,6.9-0.1,11.4V167.6z M227.2,163c0-0.6-0.1-1.2-0.4-1.7c-0.5-0.9-1.6-1.7-3.1-1.7c-0.8,0-1.8,0.2-2.4,1.1
		c-1.1,1.3-1.4,2.8-1.4,4.2c0,4,2.2,6.9,4.3,6.9c1.4,0,2.3-0.7,2.7-1.3c0.2-0.4,0.3-0.8,0.3-1.4V163z"/>
	<path class="st0" d="M238.5,165.6c0,3.6,2.6,5.7,4.6,5.7c2.2,0,3.5-0.9,4.3-2c0.1-0.2,0.3-0.2,0.4-0.2l0.5,0.3
		c0.2,0.1,0.2,0.2,0,0.7c-0.7,1.3-2.5,3.7-6.4,3.7c-2.3,0-3.9-0.5-5.1-1.9c-1.6-1.9-2-3.6-2-5.8c0-1.9,0.2-3.3,1.7-5.2
		c1.5-1.9,3.1-2.6,6.1-2.6c4,0,5.3,4.2,5.3,5.7c0,0.5-0.4,0.6-1,0.6h-8.6V165.6z M242.9,163.2c0.7,0,1.2-0.2,1.2-0.5
		c0-1.1-0.4-3.1-2.2-3.1c-1.7,0-2.8,1.3-3.3,3.6H242.9z"/>
</g>
<g>
	<path class="st0" d="M177,223.3h-0.3c-6.3,0-10.3-3.2-11.9-9.6l-0.3-2.4v-1.6c0.4-2.8,1.2-5.5,2.7-8c1.2-1.5,2.6-3.1,4.2-4.5
		c-2.1-1.9-5.7-3.3-10.9-4.2H156c-2.8,0-6.8,1.2-11.9,3.7v0.5c4.6,4.1,6.9,8.6,6.9,13.5c0,5.4-2.5,9.3-7.4,11.7l-4.5,1.1
		c-6,0-10-2.9-11.9-8.8v-1.6c0-3.7,1.9-6.2,5.6-7.7h2.1c1.9,0.4,2.9,1.3,2.9,2.7c0,1-0.7,1.8-2.1,2.4c-1.3,0-2.1-1.2-2.4-3.5h-0.3
		c-1.8,1.5-2.7,3.5-2.7,5.8c0,3.3,1.7,5.9,5,7.7l2.4,0.8h2.7c3.1,0,5.8-2.2,8-6.6l0.3-1.9v-3.2c0-2.8-1.4-5.8-4.2-9
		c-0.6-0.8-1.5-1.5-2.9-2.4c-12.7,7.6-20.3,11.4-22.8,11.4c0,0.5-2.2,1-6.6,1.3l-2.7,0.3l-6.6-1.1l0.8-0.8h0.5l4.2,0.5h1.3
		c2.8,0,6.6-1,11.4-2.9l16.7-10.1v-0.5l-5.6-1.1c-4.9,0-10.8,1.9-17.8,5.8c-12.3,8.7-21.4,13-27.3,13h-2.4l-5.3-0.8v-0.5l0.8-0.3
		l2.9,0.3c6.4,0,16.1-4.5,29.2-13.5c7.4-3.9,13.7-5.8,18.8-5.8l0.3-0.3V193c0,0-18.4,4.1-31.3,12.2c-7.5,4.4-13.6,6.6-18.3,6.6h-3.2
		c-3.2-0.3-6.5-1.9-10.1-4.8c-2.5-2.8-3.7-5.5-3.7-8.2c0-4.2,2.2-7.7,6.6-10.6c2.1-0.9,4.2-1.3,6.1-1.3c5.5,0,9.2,2.6,10.9,7.7
		l0.3,2.1v1.3c0,2.7-1.8,4.6-5.3,5.8h-2.1c-1.5,0-3-1-4.5-2.9v-0.8h0.5c0.7,0.5,1.3,0.8,1.9,0.8h0.8c3.2,0,5.3-1.6,6.1-4.8v-1.3
		c0-2.9-2.7-4.8-8-5.8h-1.6c-3.2,0-6.1,1.9-8.5,5.8l-0.8,2.4v2.9c0,2.7,2.2,5.4,6.6,8.2c1.9,0.8,4.2,1.4,6.9,1.9c5.3,0,13-3,23.1-9
		c3.7-2.7,8.3-5.3,13.8-7.7c3.2-1.1,6.8-1.8,10.9-2.1c4.6,0.5,6.9,1.1,6.9,1.9l5.3,2.1h0.5c5.7-2.5,11.3-3.7,16.7-3.7
		c5,0,10.5,1.2,16.5,3.7h0.5l5.8-2.4c0-0.9,1.9-1.3,5.6-1.3l0.3-0.3h0.3l0.3,0.3v-0.3c5.4,0.5,9.9,1.6,13.3,3.2
		c3.3,1.6,7.8,4.2,13.5,7.7c8.4,5.1,14.9,7.7,19.4,7.7l1.3,0.3c2.9-0.2,6-1.3,9.3-3.2c3-2.4,4.5-5.1,4.5-8.2c0-4.7-2.7-7.9-8-9.6
		l-1.1-0.3H238c-5,0-8,2.2-8.8,6.6c0,1.9,1.3,3.5,4,5l1.6,0.3h1.6c0.6,0,1.2-0.3,1.9-0.8l0.5,0.5c-1.3,2.1-2.8,3.2-4.5,3.2h-1.9
		c-3.7-1.1-5.6-2.9-5.6-5.3v-3.2c0-1.9,1.4-4.2,4.2-6.6c2.2-1.2,4.6-1.9,7.2-1.9c5.2,0,9,2.6,11.4,7.7c0,0.5,0.3,0.8,0.8,0.8v6.9
		c-0.6,0-1.1,0.6-1.3,1.9c-1.7,3-4.7,5.3-9,6.9l-3.2,0.8h-3.2c-5.9,0-14.3-3.6-25.2-10.9c-9.3-5.3-16-8-19.9-8h-5.3v0.3l1.9,0.5h1.9
		c6.3,0.3,15.7,4.7,28.1,13.3l4.5,2.4c5.4,2.3,9.5,3.5,12.2,3.5l3.5-0.3l0.8,0.3v0.5l-4.8,0.8h-1.9c-5.4,0-11.8-2.3-19.1-6.9
		c-10.8-7.1-17.4-10.6-19.6-10.6c-0.8-0.4-3.3-0.8-7.7-1.3c-3.5,0.6-5.3,1.1-5.3,1.3v0.8c0.7,0,4.8,2.4,12.5,7.2
		c5.8,3.5,11.4,5.3,16.7,5.3l5-0.5l0.5,0.5v0.3c-2.3,0.7-4.6,1.1-6.9,1.1c-7.5,0-16.9-3.7-28.4-11.1c-1.5-1.1-2.5-1.6-3.2-1.6h-0.5
		c-4.6,3.3-6.9,7.7-6.9,13c0,4.7,2.6,8,7.7,9.8h2.9c2.5,0,4.8-1.5,6.9-4.5l0.8-2.7v-2.7c0-1.7-0.9-3.2-2.7-4.5l-0.3,0.3h-0.3
		l0.3,0.3v0.5c0,0.8-0.4,1.4-1.1,1.9v0.3h-1.9l-1.3-1.3v-1.6c1-1.2,1.9-1.9,2.9-1.9h1.6c2.5,0,4.5,1.9,5.8,5.8l0.3,1.9
		c0,4.5-2.7,7.7-8.2,9.8L177,223.3z"/>
</g>
<path class="st1" d="M251.9,111"/>
<path class="st0" d="M242.5,126.8c3.3-0.9,5.8,0.2,6.1,3.5c0.4,4.3-3.1,6-6.2,7.5c-2.9,1.4-5.9,1.6-8-1.8c-1.5-2.5-1.8-5.4-2.3-8.1
	c-1-5.1-4-5.9-8.1-3.8c-2.7,1.4-5.1,3.3-7.8,4.7c-7.1,3.7-12.4,1.6-15.9-6c9.4,6.8,9.4,6.8,20.2-0.2c8.6-5.6,13.5-3.6,15.8,6.5
	c0.9,3.9,1.5,7.9,7,4.6c1.3-0.8,2.9-1.5,2.9-3.3C246.2,128.3,244.5,127.4,242.5,126.8z"/>
<path class="st0" d="M56.1,132.5c1.4,1.9,2.4,3.6,3.7,4.8c4.4,3.7,8.5,2.9,9.6-2.7c2.7-12.7,11.8-14,21-7c5.6,4.2,11.3,5.3,18.3,0.8
	c-4.6,5.9-9.5,6.9-15.8,3.8c-3.1-1.5-6.1-3.5-9.3-4.8c-4.4-1.9-7.6-0.5-9.1,4.3c-0.7,2.3-1.4,4.6-2.3,6.8c-1.9,4.3-5.5,5.6-9.7,3.9
	C58.5,140.7,54.5,138.6,56.1,132.5z"/>
<path class="st0" d="M193.5,86c-1.2-1.5-2.6-2.5-4.2-3.2h0c-2.1-0.9-4.6-1.2-7.1-1.2c-6.5,0.1-11.7,2.9-16.3,7.3
	c-1.2,1.1-2.2,3.1-4,0.4c-2.7-4-5.4-7.9-6.5-12.7c-1.1-4.7,0.7-7.3,5.7-7c3.2,0.2,6.5,0.9,10.8,1.5c-7.3-7.3-14.6-7.7-22.5-4.5
	c-11.8,4.7-16.1,13.8-14.8,26.2c-16.6-7.4-26.4-2.9-30.7,13.8c11.7-8.4,11.8-8.5,24.5,0.2c0,0,0,0,0.1,0c-11,4.9-14.1,16-7.2,28
	c5.6,9.8,15.2,12.6,25,7.1c2.8-1.6,5.6-2.6,8.4-2.9v0.1c2.8,0.4,5.6,1.3,8.4,2.9c9.8,5.5,19.4,2.7,25-7.1c7.3-12.7,3.4-24.3-9-28.7
	c0.4-0.6,0.8-1.4,1.1-2.5c1.9-6.1,5.2-11.3,13-10.1c0.1,0,0.2-0.1,0.3-0.1c3.3,0.2,5.9,0.5,5.9,0.5C197.6,90.3,195.4,87.7,193.5,86z
	 M151.7,125.4c-0.3,4.1-4.8,4.3-9.1,3.4c-1.7-0.2-3-0.2-4.3-0.5c-4.4-1.1-8.4-4.5-8.1-8.1c0.2-3.3,5.7-2.3,8.9-2.5
	c1.1-0.1,2.2,0,3.2,0.3C146.7,118.9,152.1,120.7,151.7,125.4z M181.9,120.3c0.3,3.6-3.7,7.1-8.1,8.1c-1.2,0.3-2.6,0.3-4.3,0.5
	c-2.8-1.6-8.7,0.8-9.1-3.4c-0.4-4.6,5-6.4,9.3-7.5c1-0.3,2.2-0.4,3.2-0.3C176.2,118.1,181.6,117,181.9,120.3z"/>
<circle class="st0" cx="176.2" cy="73.5" r="3.4"/>
<circle class="st0" cx="205.8" cy="99.7" r="5"/>
<circle class="st0" cx="99.9" cy="111" r="5"/>
</svg>
