<?xml version="1.0" encoding="utf-8"?>
<!-- Generator: Adobe Illustrator 21.0.0, SVG Export Plug-In . SVG Version: 6.00 Build 0)  -->
<svg version="1.1" id="Layer_1" xmlns="http://www.w3.org/2000/svg" xmlns:xlink="http://www.w3.org/1999/xlink" x="0px" y="0px"
	 viewBox="0 0 300 300" style="enable-background:new 0 0 300 300;" xml:space="preserve">
<style type="text/css">
	.st0{fill:#873E35;}
	.st1{fill:#FDFEFE;}
	.st2{fill:none;}
	.st3{enable-background:new    ;}
</style>
<circle class="st0" cx="146.8" cy="95.8" r="64.8"/>
<g>
	<path class="st1" d="M119,111.3h-7.5l-2-7.3H101l-0.3-0.4l-4.5,4.6l-0.1,0.1l0.5,0.6l4.2-4.3l-0.2,0.9l-3.7,3.8l0.5,0.5l2.8-2.8
		l-0.2,0.9l-2.2,2.2l0.5,0.5l1.3-1.3l-0.2,0.9l-0.8,0.8l0.5,0.4h-7.5l8.8-34.9l0.4,0.4l0.4-0.4h0.7l-0.8,0.8l0.4,0.6l1.4-1.4h0.7
		l-1.8,1.8l0.5,0.5l2.3-2.3h0.7l-2.8,2.8l0.1,0.2l-0.2,1.1l3.9-4h0.7l-1.5,1.6l0.7,0.4l1.9-2h0.7l-2.2,2.2l0.7,0.4l2.5-2.5h0.3
		l0.1,0.3l-2.5,2.5l0.2,0.1l0.2,0.6l2.3-2.4l0.2,0.6l-2.4,2.4l0.2,0.8l2.4-2.4l0.2,0.5l-2.4,2.5l0.2,0.8l2.4-2.5l0.2,0.6l-2.5,2.4
		l0.2,0.8l2.4-2.5l0.2,0.6l-2.5,2.4l0.2,0.9l2.5-2.5l0.2,0.5l-2.5,2.6l0.2,0.8l2.5-2.6l0.2,0.6l-2.5,2.6l0.2,0.8l2.6-2.6l0.2,0.6
		l-2.6,2.6l0.2,0.8l2.6-2.6l0.2,0.6l-2.6,2.6l0.2,0.8l2.6-2.7l0.2,0.6l-2.7,2.7l0.2,0.8l2.7-2.7l0.2,0.6l-2.7,2.7l0.2,0.9l2.7-2.7
		l0.2,0.6l-2.7,2.7l0.2,0.8l2.7-2.8l0.2,0.6l-2.7,2.8l0.2,0.8l2.8-2.8l0.2,0.6l-2.8,2.8l0.2,0.9l2.8-2.8l0.2,0.6l-2.8,2.8l0.2,0.8
		l2.8-2.8l0.2,0.6l-2.8,2.8l0.2,0.8l2.8-2.8l0.1,0.5l-2.8,2.9l0.2,0.8l2.9-2.9l0.1,0.6l-2.8,2.9l0.2,0.8l3-2.9l0.1,0.6l-2.9,2.9
		l0.2,0.8l3-2.9l0.1,0.6l-3,2.9l0.2,0.8l3-3l0.1,0.6l-3,3l0.2,0.8l3-3l0.1,0.6l-2.7,2.8l0.6,0.4l2.3-2.3l0.1,0.6l-2,2.1l0.7,0.4
		l1.7-1.7l0.1,0.6l-1.3,1.3l0.6,0.4l1-1l0.1,0.6l-0.7,0.7l0.7,0.4l0.3-0.3L119,111.3L119,111.3L119,111.3z M100.4,103.2l-0.5-0.7
		l-3.3,3.3l-0.3,1.3L100.4,103.2z M96.9,105l2.8-2.8l-0.4-0.6l-2.1,2.1L96.9,105z M97.4,102.8l1.6-1.6l-0.4-0.6l-0.9,0.8L97.4,102.8
		z M105.4,99.9l2.9-2.9l-0.4-0.2l-2.7-12.3v-1l-4.6,4.6l-0.3,1.4l4.9-5l-0.2,0.9l-4.9,4.9l-0.3,1.3l4.9-4.9l-0.2,0.8l-4.9,4.9
		l-0.3,1.4l5-4.9l-0.2,0.8l-5,5l-0.3,1.3l5-5l-0.1,0.9l-5.1,5l-0.3,1.3l5.1-5.1l-0.2,0.9l-5,5.1L98,100l-0.2,0.6l0.4-0.3L98,100h0.5
		l4.4-4.4l-0.2,0.8l-3.6,3.6h1l3.2-3.2h0.7l-3.2,3.2h1l3.2-3.2h0.7l-3.2,3.2h1l3.2-3.2h0.7l-3.2,3.2L105.4,99.9L105.4,99.9z
		 M100.9,87.1l4.4-4.4v-1.1l-4.1,4.1L100.9,87.1z M101.4,84.9l3.9-3.9v-1.1l-3.6,3.6L101.4,84.9z M101.9,82.6l3.4-3.4v-1l-3.1,3.1
		L101.9,82.6z M107.1,99.9l2.2-2.2l-0.7-0.4l-2.7,2.6H107.1z M108.9,99.9l1.5-1.5l-0.6-0.4l-2,1.9L108.9,99.9L108.9,99.9z
		 M110.6,99.9l0.8-0.8l-0.7-0.4l-1.2,1.2H110.6z M112.4,99.8l-0.6-0.4l-0.5,0.5h1L112.4,99.8z"/>
	<path class="st1" d="M143.2,77.8l-4.8,4.8l-0.3,1.3l4.8-4.8l-0.2,1l-4.8,4.8l-0.3,1.3l4.8-4.8l-0.2,0.9l-4.7,4.7l-0.3,1.3l4.6-4.7
		l-0.2,0.9l-4.6,4.7l-0.3,1.3l4.6-4.6l-0.2,0.9l-4.5,4.6l-0.3,1.3l4.4-4.5l-0.2,0.9l-4.4,4.4l-0.3,1.3l4.4-4.4l-0.2,0.9l-4.3,4.4
		l-0.3,1.3l4.3-4.3l-0.2,0.9l-4.3,4.3l-0.3,1.3l4.2-4.2l-0.2,0.9l-4.2,4.2l-0.3,1.3l4.2-4.1l-0.2,0.9l-4.2,4.1l-0.3,1.3l4.1-4.1
		l-0.2,0.9l-4.1,4.1l-0.3,1.3l4-4.1L137,103l-4,3.9l-0.3,1.3l3.9-3.9l-0.2,0.9l-3.6,3.6l0.5,0.6l2.8-2.8l-0.2,0.9l-2.2,2.2l0.4,0.6
		l1.4-1.4l-0.2,0.9l-0.9,0.9l0.4,0.6l0.1-0.1l-0.1,0h-9.6l-8.7-34.9h0.7l-0.3,0.2l0.7,0.4l0.7-0.7h0.7l-1,0.9l0.6,0.5l1.4-1.4h0.7
		l-1.7,1.7l0.6,0.4l2.1-2.1h0.7l-2.4,2.4l0.7,0.4l2.8-2.8h0.6v0.1l-3,3l0.1,0l0.2,0.8l2.9-2.9l0.2,0.5l-2.9,3l0.2,0.8l3-3l0.1,0.6
		l-3,2.9l0.2,0.8l2.9-2.9l0.2,0.5l-3,3l0.2,0.8l3-3l0.1,0.6l-3,2.9l0.2,0.8l3-3l0.1,0.6l-2.9,2.9l0.2,0.8l3-3l0.2,0.6l-3,2.9
		l0.2,0.8l3-2.9l0.1,0.6l-2.9,3l0.2,0.8l3-3l0.2,0.6l-3,3l0.2,0.8l3-3l0.1,0.6l-3,3L124,93l3-3l0.2,0.6l-3.1,3l0.2,0.8l3-3l0.2,0.6
		l-3,3l0.2,0.8l3-3l0.1,0.6l-3,3l0.2,0.8l3-3l0.2,0.6l-3.1,3l0.2,0.8l3-3l0.1,0.6l-3,3l0.2,0.8l3.1-3l0.1,0.6l-3,3l0.2,0.8l3.1-3
		l0.1,0.6l-3,3l0.2,0.8l3-3.1l0.2,0.6l-3.1,3.1l0.2,0.8l3-3.1l0.2,0.6l-3.1,3.1l0.2,0.8l3.1-3.1l0.1,0.6l-3.1,3.1l0.2,0.8l2.9-2.9
		v-0.7l6.2-26.9l0.3,0.4l0.4-0.4h0.7l-0.8,0.8l0.5,0.5l1.3-1.3h0.7l-1.7,1.7l0.5,0.5l2.2-2.2h0.7l-2.6,2.5l0.5,0.6l3.1-3.1h0.7
		l-3.9,3.9l-0.3,1.3l4.9-4.8L143.2,77.8z M130.1,105.7v-1.1l-2.8,2.8l0.2,0.8L130.1,105.7z M130.1,107.4v-1.1l-2.2,2.2l0.7,0.4
		L130.1,107.4z M130.1,109.1v-1.1l-1.1,1.2l0.6,0.4L130.1,109.1z"/>
	<path class="st1" d="M165.6,92.6v1.1l3.8-3.8v0.7l-3.8,3.8v1.1l3.8-3.8v0.7l-3.8,3.8v1.1l3.8-3.8v0.7l-3.8,3.8v1.1l3.8-3.8v0.7
		l-3.8,3.7c0,0.2,0,0.4,0,0.6c0,0.2-0.1,0.3-0.1,0.5l3.9-3.8v0.7l-4,4c-0.1,0.2-0.2,0.6-0.2,0.8c-0.1,0.2-0.2,0.6-0.3,0.8l4.6-4.5
		v0.6v0.1l-4.1,4.1l0.8,0.3l3.2-3.3c0,0.2,0,0.2,0,0.3s-0.1,0.2-0.1,0.4l-2.7,2.7l0.7,0.3l1.7-1.8l-0.3,1.1l-0.9,0.9l0.4,0.2
		c-1,2.1-2.5,3.7-4.4,5c-1.9,1.2-4.1,1.9-6.6,1.9c-2.4,0-4.6-0.7-6.6-1.9c-1.9-1.2-3.4-2.9-4.4-5c-0.9-1.7-1.3-3.4-1.3-5.4V88.4
		c0-1.9,0.4-3.7,1.2-5.5l0.5,0.2l6.4-6.4c0.1,0,0.3-0.1,0.5-0.2c0.1,0,0.3-0.1,0.5-0.2l-6.9,6.9l0.7,0.3l7.5-7.5c0.1,0,0.3,0,0.4,0
		c0.1,0,0.2,0,0.4-0.1l-7.8,7.8l0.7,0.3l1.2-1.2c0.3-0.5,0.6-0.8,1-1.2c0.3-0.3,0.8-0.7,1.2-0.9l4.8-4.9c0.3,0,0.6,0,0.7,0l-4.1,4
		c0.2-0.1,0.5-0.2,0.8-0.2c0.2-0.1,0.5-0.2,0.8-0.2l3.4-3.5c0.1,0.1,0.2,0.1,0.3,0.1s0.2,0,0.3,0l-3.2,3.2c0.2,0,0.3,0,0.4,0
		c0.2,0,0.3,0,0.4,0h0.2l2.9-3c0.1,0.1,0.2,0.1,0.2,0.1c0.1,0,0.1,0,0.2,0l-2.9,2.8c0.2,0.1,0.3,0.1,0.4,0.1c0.2,0,0.3,0,0.4,0.1
		l2.8-2.8c0.1,0,0.2,0.2,0.4,0.2l-2.6,2.7c0.1,0.1,0.2,0.1,0.3,0.1c0.1,0,0.2,0.1,0.4,0.1l2.6-2.5c0.1,0,0.1,0.1,0.2,0.1
		c0.1,0,0.1,0,0.2,0.1l-2.6,2.5c0.3,0.2,0.6,0.2,0.7,0.3l2.5-2.5c0.1,0.1,0.1,0.1,0.2,0.2s0.1,0.1,0.2,0.2l-2.4,2.5l0.6,0.4l2.4-2.4
		c0.1,0,0.2,0.1,0.2,0.2c0.1,0,0.2,0.1,0.2,0.2l-2.4,2.4l0.5,0.5l2.5-2.4c0.1,0,0.1,0.1,0.2,0.2c0.1,0,0.1,0.1,0.1,0.2l-2.4,2.4
		l0.4,0.6l2.5-2.5c0.1,0.1,0.1,0.2,0.2,0.2c0.1,0,0.1,0.2,0.1,0.2l-2.5,2.5c0.1,0.2,0.2,0.2,0.2,0.3c0.1,0.1,0.2,0.2,0.2,0.3
		l2.6-2.6l0.3,0.5l-2.6,2.6l0.3,0.8l2.7-2.7c0.1,0.1,0.1,0.1,0.1,0.2s0.1,0.1,0.1,0.2c0.1,0.1,0.1,0.1,0.1,0.1l-2.8,2.8
		c0.1,0.2,0.1,0.3,0.1,0.4c0.1,0.2,0.1,0.3,0.1,0.4l2.9-3c0.1,0.2,0.1,0.3,0.2,0.5l-3.1,3.1c0,0.1,0,0.2,0,0.3c0,0.1,0,0.2,0,0.3
		v0.3l3.2-3.2c0.1,0.1,0.1,0.3,0.1,0.6l-3.4,3.4V90l3.6-3.6c0,0.1,0,0.2,0,0.3c0,0.1,0,0.2,0,0.3l-3.6,3.7v1.1L169,88
		c0.1,0.1,0.1,0.2,0.1,0.3v0.4L165.6,92.6z M146.5,82.3c1.1-1.9,2.6-3.3,4.4-4.5L146.5,82.3z M164.9,103.2l-3.1-1.4l-0.1,0.1
		c0.1-0.1,0.1-0.1,0.1-0.1c0.2-0.5,0.3-1.1,0.3-1.6V87.8c0-0.2-0.1-0.6-0.1-0.8c-0.1-0.3-0.1-0.6-0.2-0.8c-0.3-0.9-0.9-1.8-1.8-2.3
		c-0.8-0.6-1.8-0.9-2.8-0.9c-1.1,0-2,0.3-2.9,0.9c-0.8,0.6-1.4,1.4-1.8,2.3l-0.8-0.3l-3.2,3.2v1.1l3.9-3.9h0.1
		c-0.1,0.2-0.2,0.5-0.2,0.8l-3.8,3.8v1.1l3.6-3.7v0.7l-3.6,3.7v1.1l3.6-3.7v0.7l-3.6,3.7v1.1l3.6-3.7v0.7l-3.6,3.7V97l3.6-3.7v0.7
		l-3.6,3.7v1.1l3.6-3.7v0.7l-3.6,3.6v0.2c0,0.3,0,0.6,0.1,0.8l3.6-3.6v0.7l-3.5,3.5c0.1,0.2,0.1,0.3,0.1,0.4
		c0.1,0.1,0.1,0.2,0.1,0.4l3.3-3.3v0.7l-3.2,3.2c0.1,0.2,0.1,0.2,0.2,0.3s0.1,0.2,0.1,0.3h-0.1l2.9-2.9c0,0.1,0,0.2,0,0.3
		c0,0.1,0,0.2,0,0.3l-2.7,2.7c0.1,0.2,0.2,0.4,0.4,0.7l2.6-2.6c0.1,0.2,0.1,0.3,0.2,0.5l-2.5,2.5c0.1,0.2,0.2,0.3,0.5,0.6l2.3-2.3
		c0.1,0.1,0.1,0.1,0.2,0.2s0.1,0.1,0.1,0.2l-2.3,2.3l0.6,0.6l2.3-2.3c0.1,0.1,0.1,0.1,0.2,0.2s0.1,0.1,0.1,0.2l-2.3,2.3
		c0.2,0.2,0.4,0.3,0.6,0.4l2.3-2.3c0.1,0.1,0.2,0.1,0.2,0.1c0.1,0,0.2,0.1,0.2,0.1l-2.4,2.4c0.2,0.1,0.4,0.2,0.7,0.3l2.5-2.6
		c0.2,0.1,0.5,0.1,0.6,0.1l-2.6,2.7c0.1,0.1,0.2,0.1,0.3,0.1c0.1,0.1,0.2,0.1,0.4,0.2l2.9-2.9c0.1-0.1,0.3-0.1,0.4-0.1
		c0.1-0.1,0.3-0.1,0.4-0.2l-3.3,3.3c0.1,0.1,0.3,0.1,0.4,0.1s0.3,0.1,0.4,0.1l6.1-6.2l0.5,0.2l-5.9,5.9c0.2,0,0.4,0,0.6,0
		c0.2,0,0.4,0,0.6-0.1l5.5-5.6l0.5,0.2l-5.1,5.2c0.2-0.1,0.5-0.2,0.8-0.2s0.5-0.2,0.8-0.3L164.9,103.2z M148.5,88.3l2.7-2.7
		l-1.9-0.9l-0.1,0.2c-0.2,0.6-0.4,1.1-0.5,1.5L150,85l0.4,0.2l-1.9,1.9c0,0.2,0,0.3,0,0.4c0,0.2,0,0.3,0,0.4L148.5,88.3L148.5,88.3z
		 M162.4,106.4c0.5-0.4,1-0.9,1.4-1.4L162.4,106.4z"/>
	<path class="st1" d="M194.8,80v1l3.5-3.5v0.7l-3.5,3.5v1l3.5-3.5V80l-3.5,3.5v1l3.5-3.5v0.7l-3.5,3.5v1.1l3.5-3.5v0.7l-3.5,3.5V88
		l3.5-3.5v0.7l-3.5,3.5v1.1l3.5-3.5v0.7l-3.5,3.5v1.1l3.5-3.6v0.7l-3.5,3.5v1.1l3.5-3.5v0.7l-3.5,3.5v1.1l3.5-3.5v0.7l-3.5,3.5v1.1
		l3.5-3.5v0.7l-3.5,3.5v1.1l3.5-3.5v0.7l-3.5,3.5v1l3.5-3.5v0.7l-3.5,3.5v1.1l3.5-3.5v0.7l-3.5,3.5v1.1l3.5-3.5v0.7l-5.9,5.8
		l0.4,0.7l5.5-5.5v0.7l-5.3,5.3l0.4,0.7l4.9-4.9v0.7l-4.6,4.7l0.7,0.3l3.9-3.9v0.7l-3.5,3.5l0.7,0.3l2.8-2.8v0.7l-2.4,2.3l0.7,0.4
		l1.7-1.7v0.7l-1.2,1.2l0.7,0.4l0.6-0.6v0.7l-0.1,0.2l0.1,0.1h-7l-11.2-21.8l-3.2,3.2v1.1l3.5-3.5v0.7l-3.5,3.5v1.1l3.5-3.5v0.7
		l-3.5,3.5v1.1l3.5-3.5v0.7l-3.5,3.5v1.1l3.5-3.5v0.7l-3.5,3.5v1.1l3.5-3.5V98l-3.5,3.5v1.1l3.5-3.5v0.6l-3.5,3.5v1.1l3.5-3.5v0.7
		l-3.5,3.5v1.1l3.5-3.5v0.7l-3.5,3.5v1.1l3.5-3.5v0.7l-3.3,3.3l0.6,0.5l2.8-2.8v0.7l-2.4,2.4l0.5,0.5l1.9-1.9v0.7l-1.6,1.6l0.6,0.6
		l1-1.1v0.7l-0.7,0.7l0.5,0.5l0.2-0.2v0.3h-7V76.6h0.7l-0.2,0.2l0.6,0.3l0.7-0.6h0.6l-0.8,0.8l0.7,0.3l1.2-1.2h0.7l-1.4,1.5l0.7,0.4
		l1.8-1.8h0.7l-2.1,2.1l0.7,0.3l2.4-2.5h0.1l0.2,0.4l-2.3,2.3l0.4,0.7l2.4-2.3l0.2,0.4l-2.3,2.2l0.3,0.7l2.4-2.3l0.2,0.5l-2.4,2.3
		l0.4,0.7l2.3-2.3l0.2,0.5l-2.3,2.3l0.3,0.7l2.4-2.3l0.2,0.5l-2.4,2.3l0.4,0.7l2.3-2.3l0.2,0.5l-2.3,2.3l0.4,0.7l2.3-2.3l0.2,0.4
		l-2.3,2.4l0.4,0.7l2.3-2.3l0.2,0.4l-2.3,2.3l0.3,0.7l2.4-2.3l0.2,0.4l-2.4,2.3l0.4,0.7l2.3-2.3l0.2,0.4l-2.3,2.3l0.3,0.7l2.4-2.3
		l0.2,0.4l-2.3,2.3l0.3,0.7l2.3-2.3l0.2,0.4l-2.3,2.3l0.4,0.7l2.3-2.3l0.2,0.4l-2.4,2.3l0.4,0.7l2.3-2.3l0.2,0.4l-2.4,2.3l0.4,0.7
		l2.3-2.3l0.2,0.4l-2.3,2.3l0.4,0.7l2.3-2.3l0.2,0.4l-2.3,2.3l0.4,0.7l2.3-2.3l0.2,0.4l-2.3,2.3l0.3,0.7l2.3-2.3l0.2,0.4l-2.3,2.3
		l0.4,0.7l2.3-2.3l0.2,0.4l-2.3,2.3l0.3,0.7l2.3-2.3l-0.2-0.4V76.5h0.1v0.1l0.7,0.3l0.3-0.4h0.7l-0.6,0.6l0.7,0.3l0.9-1h0.7
		l-1.2,1.2l0.7,0.3l1.6-1.6h0.7l-1.9,1.8v1l2.9-2.8h0.6v0.1L194.8,80z M176.9,85.1l0.6-0.6l-0.4-0.7l-0.2,0.2V85.1z M176.9,86.8
		l1.2-1.2l-0.3-0.7l-0.9,0.8V86.8z M176.9,88.6l1.8-1.8l-0.3-0.7l-1.4,1.4L176.9,88.6L176.9,88.6z M176.9,90.3l2.4-2.3l-0.4-0.7
		l-2.1,2V90.3z M179.9,89.1l-0.4-0.7l-2.6,2.6V92L179.9,89.1z M189.8,101.6l2.3-2.3l-0.4-0.7l-2.3,2.3L189.8,101.6z M190.4,102.8
		l2.3-2.3l-0.3-0.7l-2.3,2.3L190.4,102.8z M191,103.9l2.3-2.2l-0.4-0.7l-2.3,2.3L191,103.9z M191.6,105l2.3-2.3l-0.4-0.7l-2.3,2.3
		L191.6,105z M194.5,103.8l-0.4-0.7l-2.3,2.3l0.4,0.7L194.5,103.8z"/>
</g>
<rect x="91.3" y="118.2" class="st2" width="111" height="22.5"/>
<g class="st3">
	<path class="st1" d="M165.6,117.2l-0.7,0.6c-0.6-0.6-1.2-0.9-2-0.9c-0.8,0-1.3,0.2-1.8,0.8s-0.8,1.2-0.8,1.8c0,0.8,0.2,1.3,0.8,1.8
		s1.1,0.8,1.8,0.8c0.8,0,1.4-0.3,1.9-0.9l0.7,0.6c-0.3,0.4-0.8,0.7-1.2,0.9c-0.4,0.2-0.9,0.3-1.5,0.3c-0.9,0-1.8-0.3-2.5-1.1
		c-0.7-0.7-1.1-1.5-1.1-2.5s0.4-1.8,1.1-2.5s1.5-1.1,2.5-1.1c0.6,0,1.1,0.1,1.5,0.3C164.9,116.5,165.3,116.8,165.6,117.2z"/>
	<path class="st1" d="M166.4,113.5h0.9v1h-0.9V113.5z M166.4,116.1h0.9v6.7h-0.9V116.1z"/>
	<path class="st1" d="M168.2,122.8v-6.7l0.8,0.6c0.5-0.6,1.1-0.8,1.9-0.8s1.4,0.2,1.9,0.8s0.8,1.2,0.8,1.9v4.2h-0.9v-4.2
		c0-0.5-0.1-0.9-0.5-1.2c-0.3-0.3-0.8-0.5-1.2-0.5s-0.9,0.2-1.2,0.5c-0.3,0.3-0.5,0.8-0.5,1.2v4.2L168.2,122.8L168.2,122.8z"/>
	<path class="st1" d="M180.1,120.7l0.8,0.4c-0.3,0.6-0.7,1-1.2,1.3s-1.1,0.5-1.8,0.5c-0.9,0-1.8-0.3-2.5-1.1
		c-0.7-0.7-1.1-1.5-1.1-2.5s0.3-1.8,1.1-2.5c0.7-0.7,1.5-1.1,2.5-1.1c0.6,0,1.2,0.2,1.7,0.4c0.6,0.3,0.9,0.7,1.2,1.2l-4.6,4
		c0.4,0.3,1,0.5,1.6,0.5c0.5,0,0.9-0.1,1.4-0.4C179.6,121.4,179.9,121.1,180.1,120.7z M175.6,120.9l3.9-3.4
		c-0.5-0.4-1.1-0.7-1.7-0.7c-0.8,0-1.4,0.2-1.9,0.8s-0.8,1.2-0.8,1.8C175.2,120,175.4,120.5,175.6,120.9z"/>
	<path class="st1" d="M191.1,122.8h-0.9v-4.2c0-0.5-0.2-0.9-0.5-1.2c-0.4-0.3-0.8-0.4-1.2-0.4s-0.9,0.2-1.2,0.4
		c-0.4,0.3-0.5,0.7-0.5,1.2v4.2h-0.9v-4.2c0-0.5-0.1-0.9-0.5-1.2c-0.3-0.3-0.8-0.4-1.2-0.4s-0.8,0.2-1.2,0.4
		c-0.3,0.3-0.5,0.7-0.5,1.2v4.2h-0.9v-6.7l0.8,0.6c0.5-0.5,1.1-0.8,1.8-0.8c0.4,0,0.9,0.1,1.2,0.3c0.4,0.2,0.7,0.5,0.9,0.8
		c0.5-0.8,1.2-1.2,2.1-1.2c0.4,0,0.8,0.1,1.1,0.2c0.3,0.2,0.6,0.3,0.8,0.6c0.2,0.2,0.4,0.5,0.6,0.8c0.2,0.3,0.2,0.7,0.2,1.1
		L191.1,122.8L191.1,122.8z"/>
	<path class="st1" d="M197.9,121.9c-0.7,0.8-1.6,1.1-2.6,1.1c-0.9,0-1.8-0.3-2.5-1.1c-0.7-0.7-1.1-1.5-1.1-2.5s0.4-1.8,1.1-2.5
		c0.7-0.7,1.5-1.1,2.5-1.1s1.9,0.3,2.6,1.1l1-0.9v6.7L197.9,121.9z M195.4,116.8c-0.8,0-1.3,0.2-1.8,0.8s-0.8,1.2-0.8,1.8
		c0,0.8,0.2,1.3,0.8,1.8s1.1,0.8,1.8,0.8c0.8,0,1.4-0.2,1.9-0.8s0.8-1.2,0.8-1.8c0-0.8-0.2-1.3-0.8-1.8S196.1,116.8,195.4,116.8z"/>
</g>
</svg>
